# Blender v2.78 (sub 0) OBJ File: ''
# www.blender.org
mtllib Enemy Turret.mtl
o Enemy_Turret_Cube
v -0.700000 -1.000000 0.700000
v -0.700000 -1.000000 -0.700000
v 0.700000 -1.000000 -0.700000
v 0.700000 -1.000000 0.700000
v -0.700000 2.000000 0.700000
v -0.700000 2.000000 -0.700000
v 0.700000 2.000000 -0.700000
v 0.700000 2.000000 0.700000
v -0.980000 -1.000000 -0.000000
v 0.980000 -1.000000 0.000000
v -0.980000 2.000000 -0.000001
v 0.980000 2.000000 0.000000
v -0.000000 -1.000000 0.980000
v 0.000000 -1.000000 -0.980000
v -0.000000 2.000000 0.980000
v 0.000001 2.000000 -0.980000
v 0.000000 3.000000 -0.000000
v -0.000000 -1.000000 0.000000
vn 0.0000 -1.0000 0.0000
vn 0.6867 0.6730 -0.2747
vn -0.9285 0.0000 -0.3714
vn 0.3714 -0.0000 -0.9285
vn 0.9285 -0.0000 0.3714
vn 0.3714 0.0000 0.9285
vn 0.9285 -0.0000 -0.3714
vn -0.9285 0.0000 0.3714
vn 0.2747 0.6730 0.6867
vn 0.2747 0.6730 -0.6867
vn -0.3714 0.0000 0.9285
vn -0.3714 -0.0000 -0.9285
vn 0.6867 0.6730 0.2747
vn -0.2747 0.6730 0.6867
vn -0.6867 0.6730 0.2747
vn -0.6867 0.6730 -0.2747
vn -0.2747 0.6730 -0.6867
usemtl Material
s off
f 18//1 14//1 3//1 10//1
f 12//2 7//2 17//2
f 9//3 11//3 6//3 2//3
f 14//4 16//4 7//4 3//4
f 10//5 12//5 8//5 4//5
f 15//6 13//6 4//6 8//6
f 3//7 7//7 12//7 10//7
f 1//8 5//8 11//8 9//8
f 8//9 17//9 15//9
f 13//1 18//1 10//1 4//1
f 1//1 9//1 18//1 13//1
f 7//10 16//10 17//10
f 5//11 1//11 13//11 15//11
f 2//12 6//12 16//12 14//12
f 8//13 12//13 17//13
f 9//1 2//1 14//1 18//1
f 15//14 17//14 5//14
f 11//15 5//15 17//15
f 6//16 11//16 17//16
f 16//17 6//17 17//17
